<svg xmlns="http://www.w3.org/2000/svg" viewBox="0 0 1200 630">
  <defs>
    <linearGradient id="bgMain" x1="0%" y1="0%" x2="100%" y2="100%">
      <stop offset="0%" style="stop-color:#3D3329"/>
      <stop offset="50%" style="stop-color:#2C2620"/>
      <stop offset="100%" style="stop-color:#3D3329"/>
    </linearGradient>
    <linearGradient id="goldGrad" x1="0%" y1="0%" x2="100%" y2="100%">
      <stop offset="0%" style="stop-color:#F0D49A"/>
      <stop offset="50%" style="stop-color:#C9A56C"/>
      <stop offset="100%" style="stop-color:#A88654"/>
    </linearGradient>
    <linearGradient id="roseGrad" x1="0%" y1="0%" x2="100%" y2="100%">
      <stop offset="0%" style="stop-color:#F4C2CC"/>
      <stop offset="100%" style="stop-color:#C97B8A"/>
    </linearGradient>
    <radialGradient id="glow1" cx="50%" cy="50%" r="50%">
      <stop offset="0%" style="stop-color:#C9A56C;stop-opacity:0.5"/>
      <stop offset="100%" style="stop-color:#C9A56C;stop-opacity:0"/>
    </radialGradient>
    <radialGradient id="glow2" cx="50%" cy="50%" r="50%">
      <stop offset="0%" style="stop-color:#C97B8A;stop-opacity:0.4"/>
      <stop offset="100%" style="stop-color:#C97B8A;stop-opacity:0"/>
    </radialGradient>
  </defs>
  <rect width="1200" height="630" fill="url(#bgMain)"/>
  <ellipse cx="250" cy="200" rx="400" ry="320" fill="url(#glow1)"/>
  <ellipse cx="950" cy="450" rx="380" ry="310" fill="url(#glow2)"/>
  <ellipse cx="900" cy="150" rx="280" ry="220" fill="url(#glow1)" opacity="0.5"/>
  <rect x="30" y="30" width="1140" height="570" rx="8" fill="none" stroke="#C9A56C" stroke-width="2" opacity="0.4"/>
  <g opacity="0.7">
    <line x1="60" y1="60" x2="130" y2="60" stroke="#C9A56C" stroke-width="2"/>
    <line x1="60" y1="60" x2="60" y2="130" stroke="#C9A56C" stroke-width="2"/>
    <circle cx="60" cy="60" r="4" fill="#C9A56C"/>
    <line x1="1140" y1="60" x2="1070" y2="60" stroke="#C9A56C" stroke-width="2"/>
    <line x1="1140" y1="60" x2="1140" y2="130" stroke="#C9A56C" stroke-width="2"/>
    <circle cx="1140" cy="60" r="4" fill="#C9A56C"/>
    <line x1="60" y1="570" x2="130" y2="570" stroke="#C9A56C" stroke-width="2"/>
    <line x1="60" y1="570" x2="60" y2="500" stroke="#C9A56C" stroke-width="2"/>
    <circle cx="60" cy="570" r="4" fill="#C9A56C"/>
    <line x1="1140" y1="570" x2="1070" y2="570" stroke="#C9A56C" stroke-width="2"/>
    <line x1="1140" y1="570" x2="1140" y2="500" stroke="#C9A56C" stroke-width="2"/>
    <circle cx="1140" cy="570" r="4" fill="#C9A56C"/>
  </g>
  <text x="600" y="150" font-family="Georgia, serif" font-size="34" font-style="italic" fill="#F0D49A" text-anchor="middle" letter-spacing="3">Diseñadora de Eventos</text>
  <text x="600" y="330" font-family="Georgia, serif" font-size="170" font-style="italic" fill="url(#roseGrad)" text-anchor="middle" font-weight="700">Sweet</text>
  <line x1="430" y1="372" x2="580" y2="372" stroke="#C9A56C" stroke-width="1.5" opacity="0.7"/>
  <circle cx="600" cy="372" r="6" fill="#C9A56C"/>
  <circle cx="600" cy="372" r="3" fill="#F0D49A"/>
  <line x1="620" y1="372" x2="770" y2="372" stroke="#C9A56C" stroke-width="1.5" opacity="0.7"/>
  <text x="600" y="465" font-family="Georgia, serif" font-size="100" fill="url(#goldGrad)" text-anchor="middle" font-weight="600" letter-spacing="20">EVENT</text>
  <text x="600" y="535" font-family="Georgia, serif" font-size="24" font-style="italic" fill="#F4DCDF" text-anchor="middle" opacity="0.95">Convirtiendo momentos especiales en recuerdos inolvidables</text>
  <text x="600" y="595" font-family="Arial, sans-serif" font-size="18" letter-spacing="8" fill="#C9A56C" text-anchor="middle" font-weight="500">SANTIAGO REPUBLICA DOMINICANA</text>
  <g opacity="0.7">
    <circle cx="280" cy="280" r="3" fill="#F0D49A"/>
    <circle cx="920" cy="280" r="3" fill="#F0D49A"/>
    <circle cx="350" cy="230" r="2" fill="#C97B8A"/>
    <circle cx="850" cy="230" r="2" fill="#C97B8A"/>
    <circle cx="220" cy="320" r="2" fill="#C9A56C"/>
    <circle cx="980" cy="320" r="2" fill="#C9A56C"/>
  </g>
</svg>
